<svg width="1200" height="1200" viewBox="0 0 1200 1200" fill="none" xmlns="http://www.w3.org/2000/svg">
<path d="M557.128 83.0782C572.596 83.1501 587.461 85.913 601.656 89.3527L602.412 89.5392C610.22 91.5195 617.784 94.8562 624.487 98.8263L624.488 98.8273L624.979 99.1232C630.048 102.22 634.682 106.535 637.363 112.307C640.238 118.499 640.438 125.466 637.825 132.561C635.369 139.24 630.948 143.855 625.391 146.57C620.135 149.138 614.378 149.763 609.278 149.699V149.698C606.565 149.665 603.867 149.128 601.875 148.679L600.144 148.28C523.034 130.929 450.275 146.796 383.518 185.773H383.517C238.087 270.658 143.77 393.615 114.89 561.535V561.536C96.8832 666.185 114.778 764.063 171.287 855.571L172.868 858.113C240.055 965.34 337.964 1022.48 461.1 1043.58L464.642 1044.18C501.248 1050.31 538.173 1054.23 575.397 1058.13H575.396C601.253 1060.83 627.112 1057.06 653.574 1051.89L656.118 1051.38C763.676 1029.85 855.569 978.469 934.755 902.64L934.76 902.635L935.811 901.619C938.251 899.236 940.625 896.754 943.209 894.096C946.096 891.127 949.191 887.999 952.537 885.039V885.038L954.023 883.717C1016.69 827.654 1051.84 755.685 1072.09 674.357V674.356L1074.7 663.867C1080.74 639.472 1086.33 615.557 1088.7 591.132L1088.99 587.966C1090.37 572.248 1090.7 556.644 1091.58 540.226C1090.79 496.46 1083.37 453.971 1070.03 412.209L1069.36 410.169C1055.51 368.132 1031.17 334.099 995.855 307.763L994.137 306.494C958.247 280.248 922.872 254.951 883.143 236.698L883.141 236.697C855.295 223.895 826.576 216.559 796.329 216.119H796.324C775.548 215.806 756.287 209.895 738.38 203.999V204C730.311 201.349 723.671 196.874 719.561 190.614C715.355 184.211 714.321 176.704 716.273 169.374L716.275 169.367L716.48 168.639C720.968 153.415 737.457 142.833 755.146 148.802L756.361 149.204C768.934 153.301 781.96 155.367 795.575 156.961C809.33 158.572 824.289 159.747 838.713 162.208L840.43 162.508C876.429 168.933 909.189 183.751 940.158 200.749L941.675 201.586C973.466 219.22 1002.43 241.328 1031.11 261.692H1031.11C1087.32 301.593 1116.02 358.463 1133 421.469L1134.91 428.57L1134.84 428.607C1156.61 514.749 1152.1 600.232 1129.18 685.046L1128.04 689.195C1118.07 725.135 1106.44 760.668 1090.85 795.066C1063.8 854.746 1021.69 902.484 975.109 945.407L975.11 945.408C931.74 985.379 884.868 1021.59 831.899 1049.36H831.898C759.51 1087.3 682.293 1111.91 600.261 1116.49L600.26 1116.49C553.211 1119.12 506.153 1109.49 461.281 1101.85L461.276 1101.85C447.621 1099.52 433.218 1096.49 420.005 1094.1L420.002 1094.09C339.441 1079.47 270.877 1040.86 208.742 991.235L205.788 988.864C174.243 963.408 151.639 930.436 130.336 898.263L126.091 891.842C82.781 826.294 58.6475 754.493 52.634 676.426L52.3616 672.704C43.359 543.22 78.9975 425.956 151.919 320.598H151.92L153.276 318.646C210.799 236.146 283.893 169.558 375.51 124.678L378.18 123.382C434.298 96.3858 493.565 83.5122 555.627 83.0802H555.63L557.128 83.0782Z" fill="#252525" stroke="#252525" stroke-width="18"/>
<path d="M842.329 615.493C847.37 611.988 853.518 610.315 860.445 611.25L860.444 611.251C867.745 612.231 873.603 615.53 877.842 620.532C881.919 625.341 884.095 631.232 885.204 636.968L885.358 637.835C886.056 642.172 885.683 646.483 885.079 649.989V649.993C878.892 685.793 874.876 723.939 865.478 760.529L865.026 762.27C850.502 817.724 822.074 864.367 770.383 894.599L770.382 894.6C750.83 906.031 730.818 918.651 710.218 929.595L708.223 930.649C695.379 937.392 682.005 943.228 669.157 947.102C656.562 950.9 643.927 952.979 632.568 951.787C578.212 950.33 534.764 941.011 493.135 924.292L493.134 924.291C466.337 913.521 439.855 899.761 414.366 888.252V888.251C382.45 873.842 359.356 850.406 346.019 818.05L344.022 813.182C335.401 792.075 327.222 770.807 319.181 749.559L315.478 739.754V739.753C311.757 729.878 308.507 717.117 314.873 703.912L315.313 703.031C319.975 694.035 328.092 688.275 337.334 687.551C346.634 686.823 355.536 691.317 361.383 699.729L361.94 700.555L361.946 700.564L362.293 701.114C363.994 703.867 365.109 706.711 365.949 709.1C367.011 712.123 367.405 713.628 368.268 715.875L371.923 725.399C380.415 747.602 388.683 769.655 397.526 791.561L397.861 792.39C405.382 810.578 417.101 824.852 434.044 833.138L434.868 833.534L434.87 833.535L439.308 835.646C485.061 857.508 527.554 880.755 576.596 888.572L578.79 888.916C624.785 895.987 666.635 894.084 704.475 867.195L705.512 866.463C716.266 858.936 728.117 852.407 738.498 846.07L740.405 844.888C779.548 820.287 802.135 784.526 811.496 739.312L811.938 737.117C816.834 712.115 821.512 687.55 823.735 662.653L823.914 660.675C824.831 650.679 826.238 639.046 831.695 628.316L832.157 627.43C834.524 623.006 837.797 618.643 842.329 615.493Z" fill="#252525" stroke="#252525" stroke-width="18"/>
<path d="M427.778 442.678C436.864 442.096 445.538 446.453 451.208 454.783L451.812 455.681C458.011 465.006 462.669 475.584 465.824 486.025L466.077 486.897C471.146 505.208 461.58 523.664 444.677 529.253L444.678 529.254C435.964 532.138 427.095 531.007 419.622 526.322C412.304 521.733 406.899 514.128 403.766 504.877L403.765 504.873C401.495 498.163 400.305 490.073 399.825 487.918L399.629 487.038L399.611 486.137C399.392 474.95 400.371 465.457 405.71 456.761H405.711C410.772 448.508 418.841 443.251 427.778 442.678Z" fill="#252525" stroke="#252525" stroke-width="18"/>
<path d="M731.245 437.654C751.355 437.158 769.316 454.477 770.115 474.559L770.139 475.532V476.474C770.006 486.175 766.063 495.36 760.241 502.278C754.269 509.375 745.597 514.902 735.698 515.494H735.695C715.404 516.702 699.437 499.871 698.317 479.845L698.275 478.889V478.887C697.61 458.052 709.407 438.805 730.271 437.693L731.245 437.654Z" fill="#252525" stroke="#252525" stroke-width="18"/>
</svg>
