<svg width="18" height="36" viewBox="0 0 18 36" fill="none" xmlns="http://www.w3.org/2000/svg">
<path d="M8.83333 9H5.91665C4.30582 9 3 10.3058 3 11.9166C3 13.5275 4.30582 14.8333 5.91665 14.8333H8.83333V9Z" stroke="#A4A4A4" stroke-width="1.31249"/>
<path d="M8.83333 14.8332H5.91665C4.30582 14.8332 3 16.139 3 17.7498C3 19.3607 4.30582 20.6665 5.91665 20.6665H8.83333V14.8332Z" stroke="#A4A4A4" stroke-width="1.31249"/>
<path d="M14.6665 17.7498C14.6665 19.3607 13.3606 20.6665 11.7497 20.6665C10.139 20.6665 8.83313 19.3607 8.83313 17.7498C8.83313 16.139 10.139 14.8332 11.7497 14.8332C13.3606 14.8332 14.6665 16.139 14.6665 17.7498Z" stroke="#A4A4A4" stroke-width="1.31249"/>
<path d="M5.91665 20.6667H8.83333V23.5834C8.83333 25.1942 7.52748 26.5001 5.91665 26.5001C4.30582 26.5001 3 25.1942 3 23.5834C3 21.9726 4.30582 20.6667 5.91665 20.6667Z" stroke="#A4A4A4" stroke-width="1.31249"/>
<path d="M8.83313 9H11.7497C13.3606 9 14.6665 10.3058 14.6665 11.9166C14.6665 13.5275 13.3606 14.8333 11.7497 14.8333H8.83313V9Z" stroke="#A4A4A4" stroke-width="1.31249"/>
</svg>
