<svg width="18" height="36" viewBox="0 0 18 36" fill="none" xmlns="http://www.w3.org/2000/svg">
<rect x="3.58313" y="9" width="5.24997" height="5.24997" rx="0.874995" fill="#D9D9D9"/>
<rect x="3.58313" y="15.125" width="5.24997" height="5.24997" rx="0.874995" fill="#D9D9D9"/>
<path d="M3.58313 22.1249C3.58313 21.1584 4.36663 20.3749 5.33312 20.3749H7.08311C8.0496 20.3749 8.8331 21.1584 8.8331 22.1249V24.1424C8.8331 24.9979 8.21463 25.728 7.3708 25.8686L6.49581 26.0145C6.30533 26.0462 6.1109 26.0462 5.92042 26.0145L5.04542 25.8686C4.2016 25.728 3.58313 24.9979 3.58313 24.1424V22.1249Z" fill="#D9D9D9"/>
<path d="M8.83333 9H5.91665C4.30582 9 3 10.3058 3 11.9166C3 13.5275 4.30582 14.8333 5.91665 14.8333H8.83333V9Z" stroke="#A4A4A4" stroke-width="1.31249"/>
<path d="M8.83333 14.8332H5.91665C4.30582 14.8332 3 16.139 3 17.7498C3 19.3607 4.30582 20.6665 5.91665 20.6665H8.83333V14.8332Z" stroke="#A4A4A4" stroke-width="1.31249"/>
<path d="M14.6665 17.7498C14.6665 19.3607 13.3606 20.6665 11.7497 20.6665C10.139 20.6665 8.83313 19.3607 8.83313 17.7498C8.83313 16.139 10.139 14.8332 11.7497 14.8332C13.3606 14.8332 14.6665 16.139 14.6665 17.7498Z" stroke="#A4A4A4" stroke-width="1.31249"/>
<path d="M5.91665 20.6667H8.83333V23.5834C8.83333 25.1942 7.52748 26.5001 5.91665 26.5001C4.30582 26.5001 3 25.1942 3 23.5834C3 21.9726 4.30582 20.6667 5.91665 20.6667Z" stroke="#A4A4A4" stroke-width="1.31249"/>
<path d="M8.83313 9H11.7497C13.3606 9 14.6665 10.3058 14.6665 11.9166C14.6665 13.5275 13.3606 14.8333 11.7497 14.8333H8.83313V9Z" stroke="#A4A4A4" stroke-width="1.31249"/>
</svg>
