<svg width="33" height="33" viewBox="0 0 33 33" fill="none" xmlns="http://www.w3.org/2000/svg">
<path d="M14.8063 14.2436L15.9306 17.7646H12.261L13.3641 14.2436C13.6187 13.3952 13.8307 12.3983 14.0427 11.5711H14.0851C14.2973 12.3984 14.5305 13.374 14.8063 14.2436ZM31.4415 6.49025V26.4512C31.4415 29.1959 29.1959 31.4415 26.4512 31.4415H6.49031C3.74567 31.4414 1.50006 29.1958 1.50006 26.4512V6.49025C1.50006 3.74561 3.74567 1.5 6.49031 1.5H26.4513C29.1959 1.5 31.4415 3.74561 31.4415 6.49025ZM20.4696 23.7882L15.8243 9.49266H12.4944L7.91303 23.7882H10.6068L11.8371 19.737H16.376L17.6699 23.7882H20.4696ZM24.8801 13.4588H22.25V23.7882H24.8801V13.4588ZM25.0285 10.5743C25.0073 9.76828 24.4559 9.15328 23.565 9.15328C22.6954 9.15328 22.1016 9.76828 22.1016 10.5743C22.1016 11.3592 22.6741 11.9742 23.5438 11.9742C24.4559 11.9741 25.0285 11.3591 25.0285 10.5743Z" fill="#A4A4A4"/>
</svg>
