<svg width="30" height="30" viewBox="0 0 30 30" fill="none" xmlns="http://www.w3.org/2000/svg">
<g clip-path="url(#clip0_352_2)">
<path d="M22.2647 28.1299C22.1531 28.189 22.1625 28.2077 22.2694 28.1534C22.3041 28.1393 22.3331 28.1196 22.3584 28.0962C22.3584 28.0765 22.3584 28.0765 22.2647 28.1299ZM22.4897 28.0081C22.4363 28.0521 22.4362 28.0521 22.5 28.0231C22.5337 28.0034 22.5638 27.9846 22.5638 27.979C22.5638 27.9537 22.5488 27.9593 22.4897 28.0081ZM22.6359 27.9199C22.5825 27.964 22.5825 27.964 22.6463 27.9349C22.6809 27.9152 22.71 27.8946 22.71 27.8899C22.71 27.8665 22.695 27.8712 22.6359 27.9199ZM22.7841 27.8327C22.7306 27.8768 22.7306 27.8768 22.7925 27.8468C22.8272 27.8281 22.8562 27.8084 22.8562 27.8027C22.8562 27.7793 22.8412 27.784 22.7841 27.8327ZM22.9838 27.7006C22.8816 27.769 22.8459 27.8131 22.9397 27.7643C23.0025 27.7259 23.1094 27.6415 23.0906 27.6415C23.0503 27.6565 23.0166 27.6818 22.9828 27.7006H22.9838ZM14.0184 0.0105528C13.95 0.0152403 13.7447 0.0339903 13.5647 0.0489903C9.30094 0.43524 5.31188 2.73024 2.78344 6.26555C1.38563 8.20337 0.478125 10.4543 0.135937 12.8177C0.015 13.6427 0 13.8865 0 15.0049C0 16.1224 0.015 16.3624 0.135937 17.1874C0.9525 22.8227 4.96125 27.5534 10.395 29.3065C11.3728 29.6187 12.3975 29.8343 13.5647 29.9665C14.0184 30.0152 15.9806 30.0152 16.4344 29.9665C18.4519 29.7415 20.1553 29.2437 21.8409 28.384C22.0997 28.2527 22.1484 28.2181 22.1137 28.189C21.2887 27.1006 20.4788 26.0112 19.6678 24.9124L17.2706 21.6752L14.2678 17.2268C13.2666 15.7381 12.2616 14.2531 11.2406 12.7793C11.2303 12.7793 11.2172 14.7565 11.2116 17.1677C11.2012 21.3912 11.2012 21.5627 11.1478 21.6602C11.0944 21.7774 11.0062 21.8749 10.8891 21.9293C10.7962 21.9734 10.7128 21.9827 10.2694 21.9827H9.76219L9.63 21.9002C9.5475 21.8468 9.47906 21.7727 9.435 21.6856L9.37125 21.5534L9.37594 15.6743L9.38625 9.79524L9.47906 9.67805C9.53813 9.60587 9.61125 9.5468 9.69375 9.50274C9.81656 9.44368 9.86531 9.4343 10.3725 9.4343C10.9678 9.4343 11.0662 9.45774 11.2228 9.6293C12.4378 11.4406 13.6491 13.2565 14.8406 15.0781C16.7897 18.0331 19.4503 22.0652 20.7581 24.0434L23.1366 27.6424L23.2538 27.5646C24.3966 26.8024 25.4363 25.8949 26.3334 24.8599C28.2234 22.6962 29.4497 20.0346 29.865 17.194C29.9859 16.369 30.0009 16.1243 30.0009 15.0068C30.0009 13.8884 29.9859 13.6493 29.865 12.8243C29.0484 7.18899 25.0397 2.45837 19.6059 0.704303C18.5897 0.38274 17.5444 0.163365 16.4859 0.0508653C16.2019 0.0218028 14.2631 -0.0128847 14.0194 0.0124278L14.0184 0.0105528ZM20.1562 9.08274C20.2978 9.15024 20.4047 9.27774 20.4534 9.42399C20.4787 9.50274 20.4834 11.1331 20.4787 14.8052L20.4684 20.0777L19.5412 18.6527L18.6084 17.2268V13.399C18.6084 10.9174 18.6188 9.52618 18.6319 9.45774C18.6759 9.30118 18.7828 9.16993 18.9253 9.08743C19.0416 9.02837 19.0866 9.02368 19.5506 9.02368C19.9847 9.02368 20.0587 9.02837 20.1562 9.08274Z" fill="#A4A4A4"/>
</g>
<defs>
<clipPath id="clip0_352_2">
<rect width="30" height="30" fill="white"/>
</clipPath>
</defs>
</svg>
