<svg width="33" height="33" viewBox="0 0 33 33" fill="none" xmlns="http://www.w3.org/2000/svg">
<path d="M26.5097 1.5H6.54885C3.8042 1.5 1.55859 3.74561 1.55859 6.49025V26.4512C1.55859 29.1959 3.8042 31.4415 6.54885 31.4415H26.5098C29.2545 31.4415 31.5001 29.1959 31.5001 26.4512V6.49025C31.5 3.74561 29.2544 1.5 26.5097 1.5ZM15.904 16.7358C14.8648 17.775 13.2315 18.263 11.3863 18.263C10.8984 18.263 10.4531 18.2416 10.1136 18.178V23.5654H7.52619V9.46072C8.45941 9.29109 9.75328 9.16371 11.5135 9.16371C13.4226 9.16371 14.8225 9.56672 15.7345 10.3304C16.583 11.0304 17.1343 12.1545 17.1343 13.4907C17.1343 14.8482 16.7101 15.9722 15.904 16.7358ZM21.3329 23.7777C20.0814 23.7777 18.9574 23.4807 18.1938 23.0564L18.7028 21.1687C19.2966 21.5293 20.4209 21.9112 21.3541 21.9112C22.4993 21.9112 23.0085 21.4446 23.0085 20.7657C23.0085 20.066 22.5844 19.7053 21.3117 19.2599C19.2966 18.5599 18.4484 17.457 18.4696 16.248C18.4696 14.4239 19.9754 13.0029 22.3721 13.0029C23.5176 13.0029 24.5145 13.2999 25.1082 13.6179L24.5992 15.4632C24.1537 15.2088 23.3265 14.8693 22.4145 14.8693C21.4812 14.8693 20.9722 15.3148 20.9722 15.951C20.9722 16.6086 21.4601 16.9269 22.7752 17.3934C24.6416 18.0721 25.5112 19.0265 25.5325 20.5538C25.5324 22.4203 24.069 23.7777 21.3329 23.7777ZM14.5254 13.5967C14.5254 15.2723 13.3375 16.2268 11.3863 16.2268C10.8561 16.2268 10.4319 16.2056 10.1136 16.1208V11.2848C10.3895 11.2212 10.8985 11.1576 11.6197 11.1576C13.4226 11.1576 14.5254 12.006 14.5254 13.5967Z" fill="#A4A4A4"/>
</svg>
