<svg width="36" height="32" viewBox="0 0 36 32" fill="none" xmlns="http://www.w3.org/2000/svg">
<path d="M24.9258 0.950195C25.4835 0.950195 25.9448 1.04711 26.3936 1.24121L26.585 1.33008L26.5898 1.33203H26.5889C27.6136 1.96776 28.2171 3.14109 28.4229 4.69629C28.6272 6.24073 28.4401 8.16867 27.8818 10.3408C30.0678 10.965 31.8531 11.7739 33.0947 12.7256C34.3449 13.6839 35.0498 14.7911 35.0498 16C35.0498 17.1466 34.3446 18.2533 33.127 19.2266C31.917 20.1937 30.1941 21.0333 28.1318 21.6582C28.6283 23.8315 28.7845 25.7905 28.5645 27.3506C28.3431 28.9204 27.7398 30.0955 26.7129 30.6689L26.7109 30.6699C26.2003 30.9233 25.689 31.0498 25.0518 31.0498C23.0256 31.0498 20.6332 29.6749 18.125 27.3174C16.8749 28.4918 15.6256 29.4222 14.4512 30.0596C13.2666 30.7024 12.156 31.0498 11.2002 31.0498C10.563 31.0498 10.0516 30.9233 9.54102 30.6699L9.53809 30.6689V30.668C8.51156 30.0944 7.90885 28.92 7.6875 27.3506C7.46754 25.7908 7.62287 23.832 8.11914 21.6592C5.93273 21.035 4.14708 20.2262 2.90527 19.2744C1.65507 18.3161 0.950195 17.2089 0.950195 16C0.950195 14.8524 1.68849 13.7453 2.95312 12.7725C4.20999 11.8057 5.99456 10.9655 8.11914 10.3408C7.62286 8.16838 7.46761 6.24039 7.67188 4.69629C7.8775 3.14225 8.44791 1.96917 9.40918 1.33301L9.41504 1.33008L9.60645 1.24121C10.0552 1.04711 10.5165 0.950195 11.0742 0.950195C13.1001 0.950261 15.4922 2.32468 18 4.68164C19.2501 3.50721 20.5004 2.57776 21.6748 1.94043C22.8594 1.29763 23.97 0.95023 24.9258 0.950195ZM26.2725 22.3076C25.0282 22.5534 23.5434 22.7977 22.0566 22.9219C21.1894 24.1505 20.3202 25.2593 19.3301 26.248C20.4478 27.2918 21.5027 28.0904 22.4482 28.6289C23.4047 29.1736 24.2457 29.4502 24.9258 29.4502C25.1625 29.4502 25.4019 29.3318 25.6553 29.2061C26.1416 28.9039 26.4834 28.2961 26.6553 27.4277C26.8269 26.5602 26.8279 25.4416 26.6396 24.1328L26.5449 23.5947C26.4544 23.1005 26.3628 22.6717 26.2725 22.3076ZM9.72949 22.0576C9.60637 22.7908 9.48369 23.5226 9.36035 24.1348C9.17236 25.4426 9.17312 26.5918 9.34473 27.4746C9.51602 28.3557 9.85512 28.9581 10.333 29.2002C10.3947 29.2013 10.4557 29.2086 10.5146 29.2178C10.5796 29.2279 10.6402 29.2394 10.7021 29.2471C10.8242 29.2622 10.9387 29.2612 11.0518 29.2051L11.0625 29.2002H11.0742C11.7543 29.2002 12.5953 28.9236 13.5518 28.3789C14.4977 27.8402 15.5526 27.0406 16.6709 25.9961C15.8019 25.0107 14.8118 23.9019 13.9424 22.6719C12.4558 22.5475 11.0907 22.3033 9.72949 22.0576ZM16.332 22.9248C16.8149 23.6316 17.4063 24.3349 18 24.9287C18.5937 24.3349 19.1851 23.6316 19.668 22.9248H16.332ZM18 10.6748C17.0001 10.6748 16.0037 10.6753 15.0078 10.7969C14.7584 11.2283 14.4796 11.6599 14.2012 12.0898C13.9177 12.5275 13.6348 12.9643 13.3838 13.4004C12.8837 14.2692 12.3852 15.1348 12.0098 16C12.3852 16.8652 12.8837 17.7308 13.3838 18.5996C14.0065 19.4655 14.5114 20.3373 15.0068 21.0771C16.0031 21.1989 16.9997 21.2002 18 21.2002C19.0013 21.2002 19.9989 21.1993 20.9961 21.0771C21.6165 20.3345 22.1155 19.4694 22.6162 18.5996C23.1163 17.731 23.6139 16.8651 23.9893 16C23.6139 15.1349 23.1163 14.269 22.6162 13.4004L22.6143 13.3975C22.1166 12.4094 21.4958 11.5443 20.9932 10.7969C19.997 10.6751 19.0002 10.6748 18 10.6748ZM11.0811 18.125C10.9617 18.47 10.8225 18.8405 10.6807 19.2207C10.5292 19.6266 10.3778 20.0456 10.2549 20.4648C11.0845 20.6959 11.9146 20.8172 12.748 20.9355C12.5105 20.4648 12.2688 19.9973 11.916 19.5303C11.5612 19.0606 11.3163 18.591 11.0811 18.125ZM24.9219 17.9961C24.8129 18.2184 24.6993 18.4645 24.5762 18.6953C24.4352 18.9597 24.2766 19.2122 24.085 19.4043C23.9584 19.6543 23.8021 19.9043 23.6465 20.1514C23.5074 20.3723 23.37 20.5921 23.2539 20.8105C24.0861 20.6924 24.9148 20.5703 25.7432 20.3398C25.5059 19.6282 25.2666 18.815 24.9219 17.9961ZM8.51953 12.0576C7.78966 12.1839 7.17707 12.4267 6.55957 12.6719V12.6709C5.36639 13.1696 4.3961 13.7302 3.72461 14.3037C3.05135 14.8788 2.6875 15.4597 2.6875 16C2.6875 16.2366 2.78398 16.5008 2.97168 16.7812C3.15913 17.0612 3.43544 17.3546 3.78711 17.6494C4.49033 18.2388 5.49244 18.8297 6.68457 19.3281H6.68555C7.30147 19.5727 7.9162 19.8165 8.64844 20.0605C9.02299 18.8288 9.51928 17.4783 10.1367 16.127C9.39368 14.7699 8.89468 13.4133 8.51953 12.0576ZM27.5996 11.9385C27.1041 13.291 26.6064 14.6453 25.9873 16C26.6062 17.3542 27.1035 18.7075 27.4785 19.9414C28.0229 19.8474 28.5023 19.6901 28.9668 19.5137L29.4404 19.3281C30.6326 18.8298 31.6036 18.2395 32.291 17.6348C32.9777 17.0306 33.3755 16.4178 33.4385 15.875L33.4346 15.7734C33.3922 15.2623 33.0326 14.7179 32.4014 14.1787C31.7299 13.6052 30.7596 13.0446 29.5664 12.5459V12.5469C29.2547 12.4231 28.9113 12.3292 28.5645 12.2354C28.2359 12.1464 27.9046 12.0556 27.5996 11.9385ZM12.7295 11.0645C11.7898 11.1823 10.9603 11.3035 10.1338 11.5332C10.3135 11.9549 10.4661 12.376 10.6172 12.7959C10.7647 13.206 10.9132 13.6141 11.0859 14.0225C11.4305 13.5511 11.662 13.0769 11.7803 12.4902L11.7832 12.4785L11.79 12.4697C11.9773 12.2218 12.1336 11.9737 12.291 11.7236C12.4288 11.5047 12.5692 11.2852 12.7295 11.0645ZM23.1436 11.0645C23.304 11.2854 23.4451 11.5046 23.583 11.7236C23.6618 11.8487 23.7401 11.9734 23.8223 12.0977L24.084 12.4697L24.0879 12.4736L24.0449 12.5L24.0869 12.4746C24.4309 13.0437 24.6724 13.5128 24.8096 13.9746C25.1614 13.159 25.5061 12.3463 25.7441 11.5342C24.9161 11.3037 24.0851 11.1825 23.1436 11.0645ZM24.9258 2.6748C24.2453 2.67484 23.3728 2.95221 22.3848 3.49707C21.4083 4.03555 20.3229 4.83375 19.2051 5.87695C20.1951 6.86571 21.0644 7.9745 21.9316 9.20312C23.5351 9.44729 24.9051 9.57511 26.2705 9.93848C26.3299 9.6404 26.3916 9.31628 26.4512 8.99121C26.5141 8.64762 26.5766 8.30321 26.6396 7.99023C26.8276 6.68241 26.8269 5.5332 26.6553 4.65039C26.483 3.76427 26.1414 3.15926 25.6592 2.91992L25.6445 2.91211L25.6367 2.89746C25.5814 2.78765 25.5 2.73343 25.3857 2.70508C25.2671 2.67569 25.1167 2.6748 24.9258 2.6748ZM18.0029 7.07422C17.5274 7.66283 16.9434 8.35556 16.3545 8.9502H19.6455C19.3617 8.65874 19.1007 8.3452 18.8428 8.03223C18.5708 7.7023 18.3004 7.37432 18.0029 7.07422ZM9.49219 8.11328C9.51707 8.66184 9.62102 9.27872 9.72754 9.81348C11.0946 9.44725 12.5813 9.20145 14.0684 9.07715C14.9377 7.84732 15.9271 6.7382 16.7959 5.75293C15.678 4.70892 14.6234 3.90969 13.6777 3.37109C12.7213 2.82642 11.8803 2.54986 11.2002 2.5498C10.9636 2.5498 10.724 2.66728 10.4707 2.79297L10.3809 2.85254C9.94169 3.17149 9.63185 3.7579 9.4707 4.57227C9.29901 5.43992 9.29793 6.55909 9.48633 7.86816L9.4873 7.875L9.49219 8.11328Z" fill="#A4A4A4" stroke="#A4A4A4" stroke-width="0.1"/>
<path d="M18 19C19.68 19 21 17.68 21 16C21 14.32 19.68 13 18 13C16.32 13 15 14.32 15 16C15 17.68 16.32 19 18 19Z" fill="#A4A4A4"/>
</svg>
