<svg width="45" height="30" viewBox="0 0 45 30" fill="none" xmlns="http://www.w3.org/2000/svg">
<path d="M11.25 10C12.75 3.33333 16.5 0 22.5 0C31.5 0 32.625 7.5 37.125 8.75C40.125 9.58333 42.75 8.33333 45 5C43.5 11.6667 39.75 15 33.75 15C24.75 15 23.625 7.5 19.125 6.25C16.125 5.41667 13.5 6.66667 11.25 10ZM0 25C1.5 18.3333 5.25 15 11.25 15C20.25 15 21.375 22.5 25.875 23.75C28.875 24.5833 31.5 23.3333 33.75 20C32.25 26.6667 28.5 30 22.5 30C13.5 30 12.375 22.5 7.875 21.25C4.875 20.4167 2.25 21.6667 0 25Z" fill="#A4A4A4"/>
</svg>
