<svg width="33" height="33" viewBox="0 0 33 33" fill="none" xmlns="http://www.w3.org/2000/svg">
<path d="M27 1.5C29.4853 1.5 31.5 3.51472 31.5 6V27C31.5 29.4853 29.4853 31.5 27 31.5H6C3.51472 31.5 1.5 29.4853 1.5 27V6C1.5 3.51472 3.51472 1.5 6 1.5H27ZM24.1543 14.4121C23.4512 14.4121 22.8066 14.4883 22.1621 14.6348C21.5177 14.7812 20.9902 15.0157 20.5215 15.3379C20.047 15.6542 19.7011 16.0412 19.4082 16.5684C19.1329 17.0605 18.9981 17.6232 18.998 18.3262C18.998 19.205 19.2501 19.9668 19.7598 20.5527C20.2636 21.1972 21.0489 21.666 22.0449 22.1348C22.4492 22.2988 22.8067 22.4629 23.1582 22.6211C23.5097 22.7793 23.8028 22.9434 24.0371 23.1133C24.289 23.2831 24.4883 23.4708 24.623 23.6699C24.7695 23.8691 24.8456 24.1037 24.8457 24.373C24.8457 24.5604 24.7999 24.7364 24.7109 24.9004C24.6219 25.0644 24.4823 25.2051 24.2949 25.3223C24.1074 25.4394 23.8789 25.5332 23.5918 25.6035C23.3164 25.668 23.0059 25.7031 22.5957 25.7031C21.9512 25.7031 21.3066 25.5918 20.7207 25.3691C20.0762 25.1465 19.4902 24.8129 19.0742 24.4648V27.2773C19.5488 27.5234 20.1289 27.7051 20.7734 27.8281C21.418 27.9512 22.1211 28.0098 22.8242 28.0098C23.5273 28.0098 24.1719 27.9453 24.8164 27.8105C25.4609 27.6758 25.9883 27.4531 26.457 27.166C26.9316 26.8555 27.3359 26.4629 27.5703 25.9355C27.8047 25.4082 27.9863 24.8223 27.9863 24.0605C27.9863 23.5274 27.9043 23.0644 27.7461 22.6543C27.5879 22.2441 27.3594 21.8926 27.043 21.5996C26.7441 21.2891 26.3984 21.0137 25.9883 20.7793C25.5781 20.5449 25.1094 20.2988 24.582 20.0762C24.1953 19.918 23.8789 19.7656 23.5273 19.6133C23.2227 19.4609 22.959 19.3086 22.7656 19.1562C22.5488 18.9981 22.3848 18.834 22.2676 18.6641C22.1504 18.4883 22.0918 18.2949 22.0918 18.0781C22.0918 17.8789 22.144 17.6973 22.25 17.5332C22.3561 17.3691 22.502 17.2344 22.6895 17.1172C22.877 17 23.1113 16.9121 23.3926 16.8477C23.668 16.7832 23.9727 16.7539 24.3301 16.7539C24.5762 16.7539 24.834 16.7717 25.0918 16.8086C25.3613 16.8455 25.6368 16.9024 25.9121 16.9785C26.1875 17.0547 26.4571 17.1485 26.7324 17.2656C26.9902 17.3828 27.2305 17.5176 27.4355 17.6699V14.916C26.9903 14.7461 26.498 14.6172 25.9707 14.5352C25.4434 14.4531 24.8574 14.4121 24.1543 14.4121ZM7.41406 17.1406H11.1641V27.8633H14.1523V17.1406H17.9023V14.7383H7.41406V17.1406Z" fill="#A4A4A4"/>
</svg>
