<svg width="33" height="33" viewBox="0 0 33 33" fill="none" xmlns="http://www.w3.org/2000/svg">
<path d="M27 1.5H6C3.51472 1.5 1.5 3.51472 1.5 6V27C1.5 29.4853 3.51472 31.5 6 31.5H27C29.4853 31.5 31.5 29.4853 31.5 27V6C31.5 3.51472 29.4853 1.5 27 1.5Z" fill="#A4A4A4"/>
<path d="M24.1543 14.5121C24.8534 14.5121 25.434 14.5531 25.9551 14.6342C26.4511 14.7113 26.9145 14.8321 27.3359 14.9877V17.4789C27.2202 17.4036 27.0966 17.3334 26.9678 17.2679L26.7734 17.1752L26.7715 17.1742L26.3555 17.0131C26.217 16.9647 26.0784 16.9209 25.9385 16.8822C25.6591 16.8049 25.3794 16.7479 25.1055 16.7103H25.1064C24.844 16.6728 24.581 16.6537 24.3301 16.6537C24.0579 16.6537 23.814 16.6709 23.5889 16.7074L23.3701 16.7504C23.0821 16.8164 22.8365 16.9077 22.6367 17.0326C22.4396 17.1558 22.2816 17.3 22.166 17.4789C22.0491 17.6597 21.9922 17.8607 21.9922 18.0785C21.9922 18.2557 22.0283 18.4196 22.1006 18.5717L22.1846 18.7191L22.1855 18.7211C22.3098 18.9011 22.482 19.0712 22.7041 19.2338V19.2347C22.8551 19.3537 23.0449 19.4713 23.2598 19.5873L23.4824 19.7025L23.4873 19.7054C23.833 19.8553 24.1566 20.0093 24.543 20.1674V20.1683C25.0656 20.389 25.5306 20.6335 25.9385 20.8666C26.2398 21.0388 26.5058 21.2328 26.7432 21.4476L26.9707 21.6693L26.9746 21.6732C27.2786 21.9547 27.4991 22.2927 27.6523 22.6898C27.8055 23.0869 27.8867 23.5381 27.8867 24.0609C27.8867 24.8048 27.7089 25.3766 27.4785 25.8949C27.2549 26.398 26.8683 26.7769 26.4053 27.0804C25.946 27.3617 25.4288 27.5799 24.7959 27.7123C24.1585 27.8455 23.5209 27.9095 22.8242 27.9095C22.1264 27.9095 21.4294 27.8515 20.792 27.7299C20.1779 27.6126 19.6275 27.441 19.1738 27.2142V24.6703C19.5825 24.978 20.1115 25.2636 20.6855 25.4623V25.4633C21.2835 25.6904 21.9401 25.8031 22.5957 25.8031C22.9076 25.8031 23.1646 25.7836 23.3936 25.7455L23.6143 25.7015L23.6152 25.7006C23.9102 25.6283 24.1494 25.5315 24.3477 25.4076C24.5468 25.2831 24.7 25.1306 24.7988 24.9486C24.8957 24.7702 24.9453 24.5779 24.9453 24.3734C24.9453 24.1201 24.8825 23.8931 24.7598 23.6947L24.7031 23.6107C24.5955 23.4527 24.4521 23.3032 24.2783 23.1654L24.0928 23.0306C23.8519 22.8564 23.5536 22.6901 23.1992 22.5306C22.85 22.3735 22.4922 22.2085 22.0879 22.0443C21.2177 21.6348 20.5216 21.2314 20.0342 20.7181L19.8389 20.4916L19.835 20.4877L19.6621 20.2679C19.286 19.7369 19.0977 19.0785 19.0977 18.3265C19.0977 17.7233 19.1993 17.2308 19.4023 16.7992L19.4951 16.6176H19.4961C19.7464 16.1671 20.0337 15.8236 20.4102 15.5394L20.5771 15.4213L20.5781 15.4203C21.0359 15.1056 21.5518 14.8766 22.1846 14.7328C22.8219 14.588 23.4589 14.5121 24.1543 14.5121ZM17.8027 14.8383V17.0404H14.0527V27.7631H11.2637V17.0404H7.51367V14.8383H17.8027Z" fill="white" stroke="#A4A4A4" stroke-width="0.2"/>
</svg>
